<?xml version="1.0" encoding="utf-8"?>
<!-- Generator: Adobe Illustrator 18.0.0, SVG Export Plug-In . SVG Version: 6.00 Build 0)  -->
<!DOCTYPE svg PUBLIC "-//W3C//DTD SVG 1.1//EN" "http://www.w3.org/Graphics/SVG/1.1/DTD/svg11.dtd">
<svg version="1.1" id="Layer_1" xmlns="http://www.w3.org/2000/svg" xmlns:xlink="http://www.w3.org/1999/xlink" x="0px" y="0px"
	 viewBox="0 0 585 323.7" enable-background="new 0 0 585 323.7" xml:space="preserve">
<polygon fill="#FFFFFF" points="536.5,195.9 536.5,200.3 544.1,200.3 544.1,221.6 549.3,221.6 549.3,200.3 556.9,200.3 556.9,195.9 
	"/>
<polygon fill="#FFFFFF" points="577.2,195.9 572.6,213.4 567.9,195.9 560.2,195.9 560.2,221.6 565,221.6 565,201.4 570.1,221.6 
	575.1,221.6 580.2,201.4 580.2,221.6 585,221.6 585,195.9 "/>
<path fill="#FFFFFF" d="M517.6,0h-37.4c0,0,0,80,0,93.4c-2.5,0-30.6,0.1-30.6,0.1c-18-0.6-34.9,6-47.3,18.4
	c-6.2,6.2-10.9,13.4-14,21.3c-3.2-8.9-8.1-17.1-14.7-24.1c-12.4-13.1-28.8-20.3-46.4-20.3c-17.6,0-34,7.2-46.4,20.4
	c0,0-14.8,15.5-19.9,20.9c-8.3-8.8-19.7-20.9-19.7-20.9c-12.3-13.1-28.8-20.4-46.4-20.4c-17.5,0-34.4,8-46.4,20.3
	s-12.8,27.1-14.6,33.5c-1.8-13.8-8-26.5-17.9-36.4c-12.4-12.4-29.2-19-47.4-18.5c-17.8,0.5-34.7,7.9-47.6,20.8
	C7.9,121.5,0.6,138.4,0,156.2c-0.5,18.1,6.1,34.9,18.5,47.4C30.5,215.4,46.5,222,63.7,222c0.7,0,30.4,0.1,32.9,0.1l0,33
	c-0.2,8-3.6,15.6-9.4,21.5c-5.9,5.8-13.5,9.2-21.5,9.4l-0.8,0c-7.4,0-14.3-2.8-19.3-7.8c-4.8-4.8-8-14.4-7.8-22.8l0.2-5.1H0.2
	L0.1,255c-0.6,18.9,6.5,38.1,18.5,50.1c11.9,12,28.1,18.6,45.4,18.6c0.7,0,1.3,0,2,0c17.8-0.5,34.7-7.9,47.6-20.8
	c11.7-11.7,18.9-26.8,20.5-42.8l0.3,0l0-74.1c3.2,8.2,7.9,13.3,14,19.8c12.4,13.1,28.8,20.3,46.4,20.3c17.6,0,34-7.2,46.4-20.4
	l19.8-21c8.3,8.8,19.8,21,19.8,21c12.3,13.1,28.8,20.3,46.4,20.4h0c17.5,0,34-7.2,46.4-20.3c6.5-6.9,11.5-15.1,14.7-23.9
	c3.5,9.3,9.1,17.9,16.4,25.2c12.9,12.9,29.8,20.3,47.6,20.8c0.7,0,1.3,0,2,0c17.3,0,33.4-6.6,45.4-18.6c12.5-12.5,19-29.2,18.5-47
	L517.6,0z M480.1,162.1c0.2,7.7-2.5,14.9-7.8,20.1c-5,5-11.9,7.8-19.3,7.8l-0.8,0c-8-0.2-15.6-3.6-21.5-9.4
	c-5.9-5.9-9.2-13.5-9.4-21.5c-0.2-7.7,2.5-14.9,7.8-20.1c5-5,11.9-7.8,19.2-7.8c0.3,0,0.6,0,1.2,0h30.5c0,15.5,0,22.8,0,24.1
	c0,1,0,2,0,3.1C480.1,159.6,480.1,160.8,480.1,162.1z M346.9,135.4c5.5,5.8,8.6,13.7,8.6,22c0,8.3-3.1,16.2-8.6,22
	c-5.3,5.7-12.4,8.8-19.9,8.8c-7.5,0-14.6-3.2-19.9-8.9c-0.7-0.8-1.5-1.6-2.2-2.4l-2.3-2.5c-1-1-7.7-8.2-16.3-17.3l20.9-21.7
	c5.4-5.7,12.4-8.8,19.9-8.8C334.5,126.7,341.6,129.8,346.9,135.4z M235.3,157.4l-20.7,21.9c-5.3,5.7-12.4,8.8-19.9,8.8
	c-7.5,0-14.5-3.1-19.8-8.8c-5.5-5.9-8.6-13.7-8.6-22c0-8.3,3.1-16.2,8.6-22c5.3-5.7,12.4-8.8,19.9-8.8c7.5,0,14.6,3.2,19.9,8.8
	C214.6,135.5,226.8,148.5,235.3,157.4z M96.5,184.3l-30.6,0c-0.5,0-0.8,0-1.1,0c-7.4,0-14.2-2.8-19.2-7.8c-5.3-5.2-8-12.4-7.8-20.1
	c0.2-8,3.6-15.6,9.4-21.5c5.9-5.8,13.5-9.2,21.5-9.4l0.8,0c7.4,0,14.3,2.8,19.3,7.8c5.2,5.3,8,12.4,7.8,20.2
	C96.5,154.7,96.5,168.8,96.5,184.3z"/>
</svg>
