<?xml version="1.0" encoding="utf-8"?>
<!-- Generator: Adobe Illustrator 18.1.1, SVG Export Plug-In . SVG Version: 6.00 Build 0)  -->
<svg version="1.1" id="Layer_1" xmlns="http://www.w3.org/2000/svg" xmlns:xlink="http://www.w3.org/1999/xlink" x="0px" y="0px"
	 viewBox="0 0 701.6 612" enable-background="new 0 0 701.6 612" xml:space="preserve">
<path fill="#FFFFFF" d="M700.8,86.9h-50.6c0,0,0,108.3,0,126.4c-3.4,0-41.4,0.1-41.4,0.1c-24.4-0.8-47.2,8.1-64,24.9
	c-8.4,8.4-14.8,18.1-19,28.8c-4.3-12-11-23.2-19.9-32.6c-16.8-17.7-39-27.5-62.8-27.5s-46,9.7-62.8,27.6c0,0-20,21-26.9,28.3
	c-11.2-11.9-26.7-28.3-26.7-28.3c-16.7-17.7-39-27.6-62.8-27.6c-23.7,0-46.6,10.8-62.8,27.5s-17.3,36.7-19.8,45.4
	c-2.4-18.7-10.8-35.9-24.2-49.3c-16.8-16.8-39.5-25.7-64.2-25c-24.1,0.7-47,10.7-64.4,28.2C10.7,251.4,0.8,274.3,0,298.4
	c-0.7,24.5,8.3,47.2,25,64.2c16.2,16,37.9,24.9,61.2,24.9c0.9,0,41.2,0.1,44.5,0.1v44.7c-0.3,10.8-4.9,21.1-12.7,29.1
	c-8,7.9-18.3,12.5-29.1,12.7h-1.1c-10,0-19.4-3.8-26.1-10.6c-6.5-6.5-10.8-19.5-10.6-30.9l0.3-6.9H0.3l-0.1,6.4
	c-0.8,25.6,8.8,51.6,25,67.8c16.1,16.2,38,25.2,61.5,25.2c0.9,0,1.8,0,2.7,0c24.1-0.7,47-10.7,64.4-28.2
	c15.8-15.8,25.6-36.3,27.8-57.9h0.4V338.7c4.3,11.1,10.7,18,19,26.8c16.8,17.7,39,27.5,62.8,27.5c23.8,0,46-9.7,62.8-27.6l26.8-28.4
	c11.2,11.9,26.8,28.4,26.8,28.4c16.7,17.7,39,27.5,62.8,27.6l0,0c23.7,0,46-9.7,62.8-27.5c8.8-9.3,15.6-20.4,19.9-32.4
	c4.7,12.6,12.3,24.2,22.2,34.1c17.5,17.5,40.3,27.5,64.4,28.2c0.9,0,1.8,0,2.7,0c23.4,0,45.2-8.9,61.5-25.2
	c16.9-16.9,25.7-39.5,25-63.6L700.8,86.9z M650,306.3c0.3,10.4-3.4,20.2-10.6,27.2c-6.8,6.8-16.1,10.6-26.1,10.6h-1.1
	c-10.8-0.3-21.1-4.9-29.1-12.7c-8-8-12.5-18.3-12.7-29.1c-0.3-10.4,3.4-20.2,10.6-27.2c6.8-6.8,16.1-10.6,26-10.6c0.4,0,0.8,0,1.6,0
	h41.3c0,21,0,30.9,0,32.6c0,1.4,0,2.7,0,4.2C650,303,650,304.6,650,306.3z M469.6,270.2c7.4,7.9,11.6,18.5,11.6,29.8
	s-4.2,21.9-11.6,29.8c-7.2,7.7-16.8,11.9-26.9,11.9s-19.8-4.3-26.9-12c-0.9-1.1-2-2.2-3-3.2l-3.1-3.4c-1.4-1.4-10.4-11.1-22.1-23.4
	l28.3-29.4c7.3-7.7,16.8-11.9,26.9-11.9C452.9,258.4,462.5,262.6,469.6,270.2z M318.6,300l-28,29.6c-7.2,7.7-16.8,11.9-26.9,11.9
	c-10.2,0-19.6-4.2-26.8-11.9c-7.4-8-11.6-18.5-11.6-29.8c0-11.2,4.2-21.9,11.6-29.8c7.2-7.7,16.8-11.9,26.9-11.9
	c10.2,0,19.8,4.3,26.9,11.9C290.5,270.3,307.1,287.9,318.6,300z M130.6,336.4H89.2c-0.7,0-1.1,0-1.5,0c-10,0-19.2-3.8-26-10.6
	c-7.2-7-10.8-16.8-10.6-27.2c0.3-10.8,4.9-21.1,12.7-29.1c8-7.9,18.3-12.5,29.1-12.7h1.1c10,0,19.4,3.8,26.1,10.6
	c7,7.2,10.8,16.8,10.6,27.3C130.6,296.3,130.6,315.4,130.6,336.4z"/>
</svg>
