<?xml version="1.0" encoding="utf-8"?>
<!-- Generator: Adobe Illustrator 16.0.4, SVG Export Plug-In . SVG Version: 6.00 Build 0)  -->
<!DOCTYPE svg PUBLIC "-//W3C//DTD SVG 1.1//EN" "http://www.w3.org/Graphics/SVG/1.1/DTD/svg11.dtd">
<svg version="1.1" id="Layer_1" xmlns="http://www.w3.org/2000/svg" xmlns:xlink="http://www.w3.org/1999/xlink" x="0px" y="0px"
	 width="73px" height="73px" viewBox="0 0 73 73" enable-background="new 0 0 73 73" xml:space="preserve">
<g>
	<path fill="none" stroke="#FFFFFF" stroke-width="1.0849" stroke-miterlimit="10" d="M17.319,11.951
		C22.464,8.047,28.88,5.73,35.836,5.73c16.934,0,30.66,13.727,30.66,30.66s-13.727,30.66-30.66,30.66
		c-16.933,0-30.659-13.727-30.659-30.66c0-5.49,1.443-10.643,3.97-15.1"/>
	<circle fill="none" stroke="#FFFFFF" stroke-miterlimit="10" cx="12.779" cy="16.142" r="6.493"/>
	<g>
		
			<line fill="none" stroke="#FFFFFF" stroke-linecap="round" stroke-miterlimit="10" x1="12.779" y1="13.017" x2="12.779" y2="19.267"/>
		
			<line fill="none" stroke="#FFFFFF" stroke-linecap="round" stroke-miterlimit="10" x1="9.654" y1="16.142" x2="15.904" y2="16.142"/>
	</g>
	<polyline fill="none" stroke="#FFFFFF" stroke-linecap="round" stroke-miterlimit="10" points="33.334,26.095 28.584,36.39 
		41.418,33.935 35.001,46.601 	"/>
	<path fill="none" stroke="#FFFFFF" stroke-width="0.8" stroke-linecap="round" stroke-miterlimit="10" d="M36.5,49.371"/>
	<path fill="none" stroke="#FFFFFF" stroke-width="0.8" stroke-linecap="round" stroke-miterlimit="10" d="M44.502,32.204"/>
	<polyline fill="none" stroke="#FFFFFF" stroke-width="0.9" stroke-linecap="round" stroke-miterlimit="10" points="34.062,44.192 
		34.902,46.762 37.466,45.925 	"/>
</g>
</svg>
