<?xml version="1.0" encoding="utf-8"?>
<!-- Generator: Adobe Illustrator 16.0.4, SVG Export Plug-In . SVG Version: 6.00 Build 0)  -->
<!DOCTYPE svg PUBLIC "-//W3C//DTD SVG 1.1//EN" "http://www.w3.org/Graphics/SVG/1.1/DTD/svg11.dtd">
<svg version="1.1" id="Layer_1" xmlns="http://www.w3.org/2000/svg" xmlns:xlink="http://www.w3.org/1999/xlink" x="0px" y="0px"
	 width="73px" height="73px" viewBox="0 0 73 73" enable-background="new 0 0 73 73" xml:space="preserve">
<g>
	<path fill="none" stroke="#FFFFFF" stroke-width="1.0849" stroke-miterlimit="10" d="M17.446,11.854
		c5.123-3.846,11.49-6.124,18.39-6.124c16.934,0,30.66,13.727,30.66,30.659c0,16.934-13.727,30.66-30.66,30.66
		c-16.933,0-30.66-13.727-30.66-30.66c0-5.459,1.426-10.584,3.927-15.024"/>
	<circle fill="none" stroke="#FFFFFF" stroke-miterlimit="10" cx="12.779" cy="16.142" r="6.493"/>
	
		<line fill="none" stroke="#FFFFFF" stroke-linecap="round" stroke-miterlimit="10" x1="12.779" y1="13.017" x2="12.779" y2="19.267"/>
	
		<line fill="none" stroke="#FFFFFF" stroke-linecap="round" stroke-miterlimit="10" x1="9.654" y1="16.142" x2="15.904" y2="16.142"/>
	<path fill="none" stroke="#FFFFFF" stroke-width="0.8" stroke-linecap="round" stroke-miterlimit="10" d="M36.5,49.371"/>
	<path fill="none" stroke="#FFFFFF" stroke-width="0.8" stroke-linecap="round" stroke-miterlimit="10" d="M44.502,32.204"/>
	
		<line fill="none" stroke="#FFFFFF" stroke-linecap="round" stroke-miterlimit="10" x1="35.836" y1="28.476" x2="35.836" y2="44.739"/>
	<text transform="matrix(1 0 0 1 30.6001 43.71)" fill="#FFFFFF" font-family="'Dosis-Regular'" font-size="20">$</text>
</g>
</svg>
