<?xml version="1.0" encoding="utf-8"?>
<!-- Generator: Adobe Illustrator 16.0.4, SVG Export Plug-In . SVG Version: 6.00 Build 0)  -->
<!DOCTYPE svg PUBLIC "-//W3C//DTD SVG 1.1//EN" "http://www.w3.org/Graphics/SVG/1.1/DTD/svg11.dtd">
<svg version="1.1" id="Layer_1" xmlns="http://www.w3.org/2000/svg" xmlns:xlink="http://www.w3.org/1999/xlink" x="0px" y="0px"
	 width="73px" height="73px" viewBox="0 0 73 73" enable-background="new 0 0 73 73" xml:space="preserve">
<g>
	<path fill="none" stroke="#FFFFFF" stroke-width="1.0849" stroke-miterlimit="10" d="M17.478,11.831
		C22.595,8,28.95,5.73,35.836,5.73c16.934,0,30.66,13.727,30.66,30.66s-13.727,30.66-30.66,30.66
		c-16.933,0-30.659-13.727-30.659-30.66c0-5.42,1.406-10.513,3.874-14.931"/>
	<circle fill="none" stroke="#FFFFFF" stroke-miterlimit="10" cx="12.779" cy="16.142" r="6.493"/>
	
		<line fill="none" stroke="#FFFFFF" stroke-linecap="round" stroke-miterlimit="10" x1="12.779" y1="13.017" x2="12.779" y2="19.267"/>
	
		<line fill="none" stroke="#FFFFFF" stroke-linecap="round" stroke-miterlimit="10" x1="9.654" y1="16.142" x2="15.904" y2="16.142"/>
	<path fill="none" stroke="#FFFFFF" stroke-miterlimit="10" d="M29.798,44.235c1.612,1.612,3.757,2.502,6.039,2.505
		c2.282-0.002,4.426-0.893,6.039-2.505c1.621-1.624,2.508-3.773,2.505-6.059c-0.002-2.285-0.892-4.434-2.511-6.048l-0.707-0.707
		c-0.426-0.43-4.843-4.864-5.327-5.328c-0.483,0.463-4.9,4.897-5.326,5.327l-0.707,0.707c-1.619,1.614-2.509,3.763-2.51,6.048
		C27.29,40.462,28.176,42.611,29.798,44.235"/>
</g>
</svg>
